<svg width="24" height="25" viewBox="0 0 24 25" fill="none" xmlns="http://www.w3.org/2000/svg">
<g clip-path="url(#clip0_2006_1078)">
<path d="M11.0625 0.5C12.5781 0.5 14.0078 0.789062 15.3516 1.36719C16.6953 1.94531 17.8672 2.73438 18.8672 3.73438C19.8672 4.73438 20.6562 5.90625 21.2344 7.25C21.8125 8.59375 22.1016 10.0312 22.1016 11.5625C22.1016 13.0781 21.8125 14.5078 21.2344 15.8516C20.6562 17.1953 19.8672 18.3672 18.8672 19.3672C17.8672 20.3672 16.6953 21.1562 15.3516 21.7344C14.0078 22.3125 12.5781 22.6016 11.0625 22.6016C9.53125 22.6016 8.09375 22.3125 6.75 21.7344C5.40625 21.1562 4.23438 20.3672 3.23438 19.3672C2.23438 18.3672 1.44531 17.1953 0.867188 15.8516C0.289062 14.5078 0 13.0781 0 11.5625C0 10.0312 0.289062 8.59375 0.867188 7.25C1.44531 5.90625 2.23438 4.73438 3.23438 3.73438C4.23438 2.73438 5.40625 1.94531 6.75 1.36719C8.09375 0.789062 9.53125 0.5 11.0625 0.5ZM11.0625 20.3984C12.2812 20.3984 13.4297 20.1641 14.5078 19.6953C15.5703 19.2422 16.5039 18.6133 17.3086 17.8086C18.1133 17.0039 18.7422 16.0703 19.1953 15.0078C19.6641 13.9297 19.8984 12.7812 19.8984 11.5625C19.8984 10.3438 19.6641 9.19531 19.1953 8.11719C18.7422 7.03906 18.1133 6.10156 17.3086 5.30469C16.5039 4.50781 15.5703 3.875 14.5078 3.40625C13.4297 2.9375 12.2812 2.70312 11.0625 2.70312C9.84375 2.70312 8.69531 2.9375 7.61719 3.40625C6.53906 3.875 5.60156 4.50781 4.80469 5.30469C4.00781 6.10156 3.375 7.03906 2.90625 8.11719C2.4375 9.19531 2.20312 10.3438 2.20312 11.5625C2.20312 12.7812 2.4375 13.9297 2.90625 15.0078C3.375 16.0703 4.00781 17.0039 4.80469 17.8086C5.60156 18.6133 6.53906 19.2422 7.61719 19.6953C8.69531 20.1641 9.84375 20.3984 11.0625 20.3984ZM22.4297 24.5L17.625 19.6953L19.1953 18.125L24 22.9297L22.4297 24.5Z" fill="#959595"/>
</g>
<defs>
<clipPath id="clip0_2006_1078">
<rect width="24" height="25" fill="white" transform="matrix(1 0 0 -1 0 25)"/>
</clipPath>
</defs>
</svg>
