<svg width="57" height="42" viewBox="0 0 57 42" fill="none" xmlns="http://www.w3.org/2000/svg">
<path d="M25.0283 16.6042C25.0283 7.03223 19.5382 0.969971 11.949 0.969971C4.84419 0.969971 0 5.9155 0 12.935C0 19.9544 4.68272 23.9427 10.4958 23.9427C12.272 23.9427 13.7252 23.6237 15.017 23.1451C15.017 28.7287 10.0113 33.0361 3.06799 34.3124V41.97C15.9858 40.3746 25.0283 30.005 25.0283 16.6042ZM57 16.6042C57 7.03223 51.5099 0.969971 43.9207 0.969971C36.8159 0.969971 31.9717 5.9155 31.9717 12.935C31.9717 19.9544 36.4929 23.9427 42.306 23.9427C44.0822 23.9427 45.5354 23.6237 46.8272 23.1451C46.8272 28.7287 41.983 33.0361 35.0397 34.3124V41.97C47.9575 40.3746 57 30.005 57 16.6042Z" fill="#060B27"/>
</svg>
