<svg width="58" height="42" viewBox="0 0 58 42" fill="none" xmlns="http://www.w3.org/2000/svg">
<path d="M25.5283 16.6042C25.5283 7.03223 20.0382 0.969971 12.449 0.969971C5.34419 0.969971 0.5 5.9155 0.5 12.935C0.5 19.9544 5.18272 23.9427 10.9958 23.9427C12.772 23.9427 14.2252 23.6237 15.517 23.1451C15.517 28.7287 10.5113 33.0361 3.56799 34.3124V41.97C16.4858 40.3746 25.5283 30.005 25.5283 16.6042ZM57.5 16.6042C57.5 7.03223 52.0099 0.969971 44.4207 0.969971C37.3159 0.969971 32.4717 5.9155 32.4717 12.935C32.4717 19.9544 36.9929 23.9427 42.806 23.9427C44.5822 23.9427 46.0354 23.6237 47.3272 23.1451C47.3272 28.7287 42.483 33.0361 35.5397 34.3124V41.97C48.4575 40.3746 57.5 30.005 57.5 16.6042Z" fill="#060B27"/>
</svg>
