<svg width="24" height="22" viewBox="0 0 24 22" fill="none" xmlns="http://www.w3.org/2000/svg">
<path fill-rule="evenodd" clip-rule="evenodd" d="M12.9221 6.11603V8.52011C13.4256 7.75324 14.1195 7.13022 14.936 6.71203C15.7525 6.29385 16.6636 6.09482 17.5801 6.13445C22.4747 6.13445 23.533 9.19445 23.533 13.1753V21.28H18.9996V14.0947C18.9996 12.3805 18.654 10.1762 15.985 10.1762C13.3967 10.1762 12.9547 12.0419 12.9547 13.9672V21.28H8.43556V6.11603H12.9221ZM5.39965 2.3052C5.39909 2.75428 5.26597 3.19321 5.01698 3.56695C4.76798 3.94069 4.4142 4.23261 3.99998 4.40611C3.58593 4.57821 3.13003 4.62323 2.69032 4.53544C2.2506 4.44765 1.84695 4.23101 1.53073 3.91311C1.21391 3.59501 0.998224 3.19034 0.910785 2.74998C0.823345 2.30963 0.868058 1.85325 1.0393 1.43823C1.21055 1.02322 1.50067 0.668106 1.8732 0.417543C2.24573 0.16698 2.68403 0.0321577 3.13298 0.0300293C3.43136 0.0300272 3.7268 0.0889365 4.00236 0.203378C4.27792 0.31782 4.52818 0.485542 4.73877 0.696923C4.94936 0.908303 5.11614 1.15918 5.22955 1.43517C5.34296 1.71116 5.40076 2.00682 5.39965 2.3052Z" fill="white"/>
<path d="M5.40003 6.13452H0.866699V21.2801H5.40003V6.13452Z" fill="white"/>
</svg>
