<svg width="49" height="45" viewBox="0 0 49 45" fill="none" xmlns="http://www.w3.org/2000/svg">
<path d="M12.4452 0.116053C13.6477 -0.0316264 14.8713 0.0105677 16.0844 1.91266e-05C22.3819 1.91266e-05 28.6688 1.91266e-05 34.9663 1.91266e-05C36.5485 0.0105677 38.1414 -0.063272 39.7131 0.200441C41.6118 0.4958 43.5 1.20255 44.9663 2.48947C46.3587 3.70255 47.2869 5.39032 47.7616 7.17302C48.1308 8.55487 48.2574 10 48.2574 11.4241C48.2574 16.2764 48.2574 21.1287 48.2574 25.9916C48.289 27.8481 48.2047 29.7258 47.6456 31.4979C47.076 33.3861 45.9367 35.1372 44.3122 36.2764C42.2764 37.7215 39.7447 38.2173 37.2869 38.249C34.5127 38.2595 31.7279 38.249 28.9536 38.249C27.9304 38.2701 26.9705 37.5 26.7701 36.4979C26.6751 36.0971 26.749 35.6857 26.7911 35.2743C27.1076 32.4051 26.5274 29.4409 25.1772 26.8882C23.5844 23.8397 20.8734 21.4135 17.6772 20.1477C14.154 18.7342 10.0717 18.7658 6.58018 20.2637C5.96836 20.5591 5.24051 20.6224 4.6076 20.3481C3.79537 20.0106 3.22575 19.1561 3.24684 18.2701C3.24684 15.8439 3.24684 13.4072 3.24684 10.981C3.27849 8.67091 3.70043 6.27639 4.96625 4.30382C6.00001 2.65825 7.63503 1.42407 9.45992 0.78061C10.4198 0.453606 11.4325 0.232087 12.4452 0.116053ZM13.9009 9.67302C13.3101 9.89453 12.8671 10.4642 12.8249 11.0971C12.7722 11.6561 13.0253 12.2258 13.4578 12.5739C15.7468 14.3988 18.0253 16.2342 20.3144 18.0591C21.443 18.9557 22.7827 19.5781 24.2068 19.8312C26.211 20.2004 28.3418 19.8312 30.1139 18.808C30.9051 18.365 31.5907 17.7532 32.2975 17.1941C34.0485 15.7806 35.8207 14.3882 37.5717 12.9747C37.8987 12.711 38.2679 12.4684 38.4789 12.0886C38.8376 11.4557 38.7426 10.6013 38.2257 10.0844C37.6667 9.48314 36.6435 9.39875 35.9895 9.91563C33.7215 11.73 31.4536 13.5443 29.1857 15.3587C28.5106 15.9177 27.6983 16.308 26.8439 16.4874C25.3355 16.8038 23.7004 16.4346 22.4874 15.4853C20.1772 13.6393 17.8776 11.8038 15.5675 9.95783C15.1034 9.56753 14.4494 9.46204 13.9009 9.67302Z" fill="#F6F6F7"/>
<path d="M10.8629 22.595C13.1308 22.3102 15.4937 22.7321 17.5084 23.8186C20.1772 25.2216 22.2236 27.7321 23.057 30.6329C23.7848 33.1329 23.6055 35.8756 22.5506 38.2595C21.5063 40.6857 19.5654 42.7005 17.192 43.8608C14.808 45.0317 12.0021 45.3165 9.42828 44.6414C6.83334 43.9768 4.49157 42.3524 2.97258 40.1266C1.35866 37.8059 0.683551 34.8735 1.11604 32.0886C1.47469 29.6203 2.68777 27.2996 4.50212 25.5908C6.24262 23.9557 8.50001 22.8903 10.8629 22.595ZM7.56119 29.1667C6.7595 29.1878 6.07385 29.9367 6.11604 30.7384C6.11604 31.5401 6.84389 32.2469 7.64558 32.2258C9.12237 32.2363 10.5886 32.2258 12.0654 32.2258C12.3924 32.2258 12.7405 32.1836 13.0253 32.0148C13.6477 31.6667 13.943 30.865 13.7004 30.1899C13.4895 29.5675 12.846 29.1351 12.192 29.1562C10.6519 29.1667 9.10127 29.1456 7.56119 29.1667ZM7.56119 35.2954C7.07596 35.3165 6.62237 35.5802 6.35866 35.9916C6.00001 36.519 6.03165 37.2574 6.42195 37.7532C6.72786 38.1646 7.23418 38.3756 7.74051 38.3545C10.5886 38.3545 13.4367 38.3545 16.2954 38.3545C16.7068 38.3545 17.1392 38.3861 17.519 38.1857C18.1941 37.8692 18.5422 37.0148 18.289 36.3186C18.0886 35.7068 17.4663 35.2743 16.8228 35.2848C13.7426 35.2954 10.6519 35.2848 7.56119 35.2954Z" fill="#2D55FB"/>
</svg>
