<svg width="22" height="18" viewBox="0 0 22 18" fill="none" xmlns="http://www.w3.org/2000/svg">
<g clip-path="url(#clip0_2054_201)">
<path d="M17.1707 17.5H4.81909C4.75269 17.5111 4.68628 17.5166 4.61987 17.5166C4.55347 17.5166 4.48706 17.5166 4.42065 17.5166C3.93368 17.5166 3.4799 17.4281 3.05933 17.251C2.63875 17.0628 2.27075 16.811 1.95532 16.4956C1.63989 16.1802 1.3881 15.8122 1.19995 15.3916C1.02287 14.971 0.934326 14.5173 0.934326 14.0303C0.934326 13.9639 0.934326 13.8947 0.934326 13.8228C0.934326 13.7508 0.93986 13.6816 0.950928 13.6152V13.6318V4.36816C0.93986 4.30176 0.934326 4.23535 0.934326 4.16895C0.934326 4.10254 0.934326 4.03613 0.934326 3.96973C0.934326 3.48275 1.02287 3.02897 1.19995 2.6084C1.3881 2.18783 1.63989 1.81982 1.95532 1.50439C2.27075 1.18896 2.63875 0.937174 3.05933 0.749023C3.4799 0.57194 3.93368 0.483398 4.42065 0.483398C4.48706 0.483398 4.55623 0.483398 4.62817 0.483398C4.70011 0.483398 4.76929 0.488932 4.83569 0.5H4.81909H17.1707C17.2371 0.488932 17.3035 0.483398 17.3699 0.483398C17.4363 0.483398 17.5082 0.483398 17.5857 0.483398C18.0616 0.483398 18.5098 0.57194 18.9304 0.749023C19.3621 0.937174 19.7356 1.18896 20.051 1.50439C20.3665 1.81982 20.6127 2.18783 20.7898 2.6084C20.9779 3.02897 21.072 3.48275 21.072 3.96973C21.072 4.03613 21.0693 4.10531 21.0637 4.17725C21.0582 4.24919 21.0499 4.31836 21.0388 4.38477V4.36816V13.6318C21.0499 13.6982 21.0582 13.7646 21.0637 13.8311C21.0693 13.8975 21.072 13.9639 21.072 14.0303C21.072 14.5173 20.9779 14.971 20.7898 15.3916C20.6127 15.8122 20.3665 16.1802 20.051 16.4956C19.7356 16.811 19.3621 17.0628 18.9304 17.251C18.5098 17.4281 18.0616 17.5166 17.5857 17.5166C17.5082 17.5166 17.4363 17.5166 17.3699 17.5166C17.3035 17.5166 17.2315 17.5111 17.1541 17.5H17.1707ZM4.81909 2.04395C4.00008 2.04395 3.40796 2.22656 3.04272 2.5918C2.67749 2.95703 2.49487 3.54915 2.49487 4.36816V13.6318C2.49487 14.4508 2.67749 15.043 3.04272 15.4082C3.40796 15.7734 4.00008 15.9561 4.81909 15.9561H17.1707C17.9897 15.9561 18.5818 15.7734 18.947 15.4082C19.3123 15.043 19.4949 14.4508 19.4949 13.6318V4.36816C19.4949 3.54915 19.3123 2.95703 18.947 2.5918C18.5818 2.22656 17.9897 2.04395 17.1707 2.04395H4.81909ZM12.0574 9.69727L17.1208 6.01172C17.2205 5.94531 17.2979 5.85677 17.3533 5.74609C17.4086 5.63542 17.4363 5.51921 17.4363 5.39746C17.4363 5.18717 17.3616 5.00456 17.2122 4.84961C17.0627 4.69466 16.8774 4.61719 16.656 4.61719C16.5785 4.61719 16.5011 4.63102 16.4236 4.65869C16.3461 4.68636 16.2742 4.72233 16.2078 4.7666L11.1443 8.45215C11.1222 8.46322 11.1 8.47428 11.0779 8.48535C11.0557 8.49642 11.0281 8.50195 10.9949 8.50195C10.9727 8.50195 10.9478 8.49642 10.9202 8.48535C10.8925 8.47428 10.8676 8.46322 10.8455 8.45215L5.78198 4.7666C5.71558 4.72233 5.64364 4.68636 5.56616 4.65869C5.48869 4.63102 5.41121 4.61719 5.33374 4.61719C5.11239 4.61719 4.927 4.69466 4.77759 4.84961C4.62817 5.00456 4.55347 5.18717 4.55347 5.39746C4.55347 5.51921 4.5839 5.63542 4.64478 5.74609C4.70565 5.85677 4.78035 5.94531 4.8689 6.01172L9.93237 9.69727C10.0763 9.80794 10.2395 9.89372 10.4221 9.95459C10.6047 10.0155 10.7957 10.0459 10.9949 10.0459C11.1941 10.0459 11.385 10.0155 11.5676 9.95459C11.7502 9.89372 11.9135 9.80794 12.0574 9.69727Z" fill="white"/>
</g>
<defs>
<clipPath id="clip0_2054_201">
<rect width="20.09" height="17" fill="white" transform="matrix(1 0 0 -1 0.949951 17.5)"/>
</clipPath>
</defs>
</svg>
