<svg width="21" height="21" viewBox="0 0 21 21" fill="none" xmlns="http://www.w3.org/2000/svg">
<g clip-path="url(#clip0_2054_210)">
<path d="M15.4678 20.345C15.2204 20.345 14.9762 20.3287 14.7354 20.2961C14.4945 20.2636 14.2568 20.2148 14.0225 20.1497H14.0615C12.473 19.7069 10.9821 19.0754 9.58887 18.2551C8.19564 17.4348 6.93913 16.468 5.81934 15.3547C4.69954 14.2415 3.72949 12.9947 2.90918 11.6145C2.10189 10.2473 1.47689 8.78247 1.03418 7.21997L0.995117 7.10278C0.930013 6.88143 0.881185 6.65356 0.848633 6.41919C0.816081 6.18481 0.799805 5.93742 0.799805 5.677C0.799805 5.15617 0.871419 4.65812 1.01465 4.18286C1.15788 3.7076 1.3597 3.26815 1.62012 2.8645L1.60059 2.88403C2.00423 2.24601 2.50879 1.71216 3.11426 1.28247C3.71973 0.852783 4.39355 0.559814 5.13574 0.403564L5.1748 0.384033C5.25293 0.371012 5.33105 0.361247 5.40918 0.354736C5.4873 0.348226 5.56543 0.344971 5.64355 0.344971C6.07324 0.344971 6.46061 0.449137 6.80566 0.657471C7.15072 0.865804 7.42741 1.13273 7.63574 1.45825V1.47778L9.2373 4.19263C9.36751 4.40096 9.46842 4.62882 9.54004 4.87622C9.61165 5.12362 9.64746 5.37752 9.64746 5.63794C9.64746 6.14575 9.53027 6.60799 9.2959 7.02466C9.06152 7.44132 8.75553 7.77987 8.37793 8.04028H8.3584L7.20605 8.802C7.47949 9.3619 7.7985 9.89575 8.16309 10.4036C8.51465 10.8984 8.90527 11.3606 9.33496 11.7903C9.76465 12.22 10.2269 12.6171 10.7217 12.9817C11.2035 13.3333 11.7178 13.6458 12.2646 13.9192L12.3232 13.9387L13.1045 12.7864C13.3779 12.3958 13.723 12.0833 14.1396 11.8489C14.5563 11.6145 15.012 11.4973 15.5068 11.4973C15.7803 11.4973 16.0407 11.5331 16.2881 11.6047C16.5355 11.6764 16.7699 11.7838 16.9912 11.927L16.9717 11.9075L19.6865 13.5286C20.0251 13.7369 20.2952 14.0136 20.4971 14.3586C20.6989 14.7037 20.7998 15.0911 20.7998 15.5208C20.7998 15.5989 20.7965 15.677 20.79 15.7551C20.7835 15.8333 20.7738 15.9049 20.7607 15.97C20.6045 16.7252 20.3115 17.4088 19.8818 18.0208C19.4521 18.6327 18.9248 19.134 18.2998 19.5247L18.2803 19.5442C17.8766 19.7916 17.4372 19.9869 16.9619 20.1301C16.4867 20.2734 15.9886 20.345 15.4678 20.345ZM5.64355 1.88794C5.61751 1.88794 5.59147 1.88794 5.56543 1.88794C5.53939 1.88794 5.51335 1.89445 5.4873 1.90747H5.50684C4.94694 2.01164 4.44564 2.21997 4.00293 2.53247C3.56022 2.84497 3.20215 3.22257 2.92871 3.66528L2.90918 3.68481C2.72689 3.97127 2.58691 4.28377 2.48926 4.62231C2.3916 4.96086 2.34277 5.31242 2.34277 5.677C2.34277 5.85929 2.35579 6.03833 2.38184 6.21411C2.40788 6.38989 2.44043 6.55591 2.47949 6.71216V6.69263C2.89616 8.15096 3.47559 9.51815 4.21777 10.7942C4.97298 12.0702 5.86165 13.2226 6.88379 14.2512C7.90592 15.2799 9.0485 16.1653 10.3115 16.9075C11.5745 17.6627 12.9157 18.2421 14.335 18.6458L14.4717 18.6653C14.6149 18.7174 14.7712 18.7532 14.9404 18.7727C15.1097 18.7922 15.2855 18.802 15.4678 18.802C15.8324 18.802 16.1839 18.7532 16.5225 18.6555C16.861 18.5579 17.18 18.4114 17.4795 18.2161L17.46 18.2356C17.9157 17.9491 18.2998 17.5878 18.6123 17.1516C18.9248 16.7154 19.1331 16.2304 19.2373 15.6965L19.2568 15.6575C19.2568 15.6444 19.2568 15.6249 19.2568 15.5989C19.2568 15.5728 19.2568 15.5468 19.2568 15.5208C19.2568 15.3775 19.2243 15.2473 19.1592 15.1301C19.0941 15.0129 19.0029 14.9218 18.8857 14.8567L16.1709 13.2356C16.0798 13.1705 15.9756 13.1217 15.8584 13.0891C15.7412 13.0566 15.6175 13.0403 15.4873 13.0403C15.266 13.0403 15.0576 13.0956 14.8623 13.2063C14.667 13.317 14.5107 13.4569 14.3936 13.6262L14.374 13.6458L13.2412 15.345C13.1761 15.4491 13.085 15.5338 12.9678 15.5989C12.8506 15.664 12.7269 15.6965 12.5967 15.6965C12.5446 15.6965 12.4925 15.69 12.4404 15.677C12.3883 15.664 12.3428 15.6444 12.3037 15.6184C11.5355 15.2929 10.8128 14.9023 10.1357 14.4465C9.45866 13.9778 8.83366 13.4602 8.26074 12.8938C7.68783 12.3274 7.1735 11.7056 6.71777 11.0286C6.26204 10.3645 5.87142 9.66138 5.5459 8.91919L5.52637 8.82153C5.50033 8.78247 5.48405 8.7369 5.47754 8.68481C5.47103 8.63273 5.46777 8.58065 5.46777 8.52856C5.46777 8.39836 5.49707 8.27791 5.55566 8.16724C5.61426 8.05656 5.69564 7.96216 5.7998 7.88403L7.49902 6.75122C7.68132 6.63403 7.8278 6.47778 7.93848 6.28247C8.04915 6.08716 8.10449 5.87231 8.10449 5.63794C8.10449 5.52075 8.08822 5.40356 8.05566 5.28638C8.02311 5.16919 7.97428 5.05851 7.90918 4.95435V4.97388L6.30762 2.25903C6.24251 2.14185 6.15137 2.0507 6.03418 1.9856C5.91699 1.92049 5.78678 1.88794 5.64355 1.88794Z" fill="white"/>
</g>
<defs>
<clipPath id="clip0_2054_210">
<rect width="20" height="20" fill="white" transform="matrix(1 0 0 -1 0.799805 20.345)"/>
</clipPath>
</defs>
</svg>
