<svg width="12" height="21" viewBox="0 0 12 21" fill="none" xmlns="http://www.w3.org/2000/svg">
<path d="M1.27734 7.83276L6 12.5554L10.7109 7.83276C10.7812 7.76245 10.8633 7.70776 10.957 7.6687C11.0508 7.62964 11.1484 7.61011 11.25 7.61011C11.4609 7.61011 11.6387 7.68237 11.7832 7.8269C11.9277 7.97144 12 8.14917 12 8.36011C12 8.46167 11.9805 8.55933 11.9414 8.65308C11.9023 8.74683 11.8477 8.82495 11.7773 8.88745L6.52734 14.1375C6.45703 14.2078 6.37695 14.2625 6.28711 14.3015C6.19727 14.3406 6.10156 14.3601 6 14.3601C5.89844 14.3601 5.80078 14.3406 5.70703 14.3015C5.61328 14.2625 5.53516 14.2078 5.47266 14.1375L0.222656 8.88745C0.152344 8.82495 0.0976562 8.74878 0.0585938 8.65894C0.0195312 8.56909 0 8.46948 0 8.36011C0 8.15698 0.0742188 7.9812 0.222656 7.83276C0.371094 7.68433 0.546875 7.61011 0.75 7.61011C0.851562 7.61011 0.949219 7.62964 1.04297 7.6687C1.13672 7.70776 1.21484 7.76245 1.27734 7.83276Z" fill="#E6E6E6"/>
</svg>
