<svg width="178" height="34" viewBox="0 0 178 34" fill="none" xmlns="http://www.w3.org/2000/svg">
<path d="M6.30142 33.1098V7.12439H11.3715V10.2987H11.6009C11.8262 9.79019 12.1522 9.27343 12.5787 8.74847C13.0133 8.21531 13.5766 7.77238 14.2687 7.41968C14.9689 7.05877 15.838 6.87831 16.8762 6.87831C18.2282 6.87831 19.4757 7.23922 20.6184 7.96104C21.7612 8.67465 22.6746 9.75328 23.3587 11.1969C24.0428 12.6323 24.3848 14.4328 24.3848 16.5982C24.3848 18.7063 24.0508 20.4862 23.3829 21.938C22.7229 23.3817 21.8216 24.4767 20.6788 25.2231C19.5441 25.9613 18.2725 26.3305 16.8641 26.3305C15.8662 26.3305 15.0172 26.1623 14.317 25.826C13.6249 25.4897 13.0575 25.0673 12.6149 24.5587C12.1723 24.042 11.8343 23.5211 11.6009 22.9962H11.444V33.1098H6.30142ZM11.3353 16.5736C11.3353 17.6974 11.4882 18.6776 11.794 19.5142C12.0999 20.3509 12.5425 21.003 13.1219 21.4705C13.7014 21.9298 14.4055 22.1595 15.2345 22.1595C16.0714 22.1595 16.7796 21.9257 17.3591 21.4582C17.9385 20.9824 18.3771 20.3263 18.6749 19.4896C18.9807 18.6447 19.1336 17.6728 19.1336 16.5736C19.1336 15.4827 18.9847 14.523 18.687 13.6946C18.3892 12.8661 17.9506 12.2181 17.3712 11.7506C16.7917 11.283 16.0795 11.0493 15.2345 11.0493C14.3975 11.0493 13.6893 11.2748 13.1098 11.726C12.5385 12.1771 12.0999 12.8169 11.794 13.6453C11.4882 14.4738 11.3353 15.4499 11.3353 16.5736Z" fill="#0074FF"/>
<path d="M33.1006 26.3797C31.9175 26.3797 30.8633 26.1705 29.9378 25.7522C29.0123 25.3257 28.2799 24.6982 27.7407 23.8697C27.2096 23.0331 26.944 21.9914 26.944 20.7446C26.944 19.6947 27.1331 18.8129 27.5114 18.0993C27.8896 17.3857 28.4047 16.8115 29.0565 16.3768C29.7084 15.942 30.4488 15.6139 31.2777 15.3925C32.1147 15.171 32.9919 15.0152 33.9094 14.9249C34.9878 14.8101 35.8569 14.7035 36.5168 14.605C37.1768 14.4984 37.6556 14.3426 37.9534 14.1375C38.2511 13.9324 38.4 13.6289 38.4 13.227V13.1532C38.4 12.374 38.1586 11.7711 37.6757 11.3446C37.2009 10.918 36.5249 10.7048 35.6477 10.7048C34.7222 10.7048 33.9858 10.9139 33.4386 11.3323C32.8913 11.7424 32.5292 12.2591 32.3521 12.8825L27.5959 12.4888C27.8373 11.3405 28.3121 10.348 29.0203 9.5113C29.7285 8.66645 30.642 8.01845 31.7606 7.56732C32.8873 7.10798 34.191 6.87831 35.6718 6.87831C36.7019 6.87831 37.6878 7.00135 38.6294 7.24742C39.579 7.4935 40.42 7.87491 41.1524 8.39167C41.8928 8.90842 42.4762 9.57282 42.9028 10.3849C43.3293 11.1887 43.5426 12.1525 43.5426 13.2762V26.0229H38.6656V23.4022H38.5207C38.223 23.9928 37.8246 24.5136 37.3256 24.9647C36.8267 25.4077 36.2271 25.7563 35.527 26.0106C34.8268 26.2566 34.018 26.3797 33.1006 26.3797ZM34.5733 22.7624C35.3298 22.7624 35.9978 22.6106 36.5772 22.3071C37.1566 21.9955 37.6113 21.5771 37.9413 21.0522C38.2713 20.5272 38.4362 19.9325 38.4362 19.2681V17.2626C38.2753 17.3693 38.054 17.4677 37.7723 17.5579C37.4987 17.6399 37.1888 17.7179 36.8428 17.7917C36.4967 17.8573 36.1507 17.9188 35.8046 17.9762C35.4586 18.0255 35.1447 18.0706 34.863 18.1116C34.2594 18.2018 33.7323 18.3454 33.2816 18.5422C32.831 18.7391 32.4809 19.0057 32.2314 19.342C31.9819 19.6701 31.8572 20.0802 31.8572 20.5723C31.8572 21.2859 32.1107 21.8314 32.6177 22.2087C33.1328 22.5778 33.7846 22.7624 34.5733 22.7624Z" fill="#0074FF"/>
<path d="M52.6748 0.824896V26.0229H47.5323V0.824896H52.6748Z" fill="#0074FF"/>
<path d="M65.2444 26.392C63.3371 26.392 61.6954 25.9983 60.3192 25.2108C58.9511 24.4152 57.8968 23.2914 57.1564 21.8396C56.416 20.3796 56.0458 18.6529 56.0458 16.6597C56.0458 14.7158 56.416 13.0097 57.1564 11.5414C57.8968 10.0732 58.939 8.92893 60.283 8.10868C61.635 7.28844 63.2204 6.87831 65.0392 6.87831C66.2625 6.87831 67.4012 7.07927 68.4555 7.48119C69.5178 7.87491 70.4433 8.46959 71.232 9.26523C72.0287 10.0609 72.6484 11.0616 73.091 12.2673C73.5337 13.4649 73.755 14.8675 73.755 16.4752V17.9147H58.098V14.6666H68.9142C68.9142 13.9119 68.7533 13.2434 68.4314 12.661C68.1094 12.0787 67.6628 11.6234 67.0914 11.2953C66.5281 10.959 65.8722 10.7909 65.1237 10.7909C64.3431 10.7909 63.651 10.9754 63.0474 11.3446C62.4519 11.7055 61.9851 12.1935 61.6471 12.8087C61.3091 13.4157 61.136 14.0924 61.128 14.8388V17.927C61.128 18.8621 61.297 19.6701 61.635 20.3509C61.9811 21.0317 62.4679 21.5566 63.0957 21.9257C63.7234 22.2948 64.4678 22.4794 65.3289 22.4794C65.9003 22.4794 66.4234 22.3974 66.8983 22.2333C67.3731 22.0693 67.7795 21.8232 68.1175 21.4951C68.4555 21.167 68.713 20.7651 68.8901 20.2893L73.6463 20.6092C73.4049 21.774 72.91 22.7911 72.1615 23.6606C71.4211 24.5218 70.4634 25.1944 69.2884 25.6784C68.1215 26.1541 66.7735 26.392 65.2444 26.392Z" fill="#0074FF"/>
<path d="M84.9786 26.0229V7.12439H89.8797V10.4587H90.097C90.4833 9.35136 91.1271 8.47779 92.0285 7.838C92.9298 7.19821 94.0082 6.87831 95.2637 6.87831C96.5352 6.87831 97.6177 7.20231 98.511 7.8503C99.4043 8.4901 99.9998 9.35956 100.298 10.4587H100.491C100.869 9.37596 101.553 8.5106 102.543 7.86261C103.541 7.20641 104.72 6.87831 106.08 6.87831C107.81 6.87831 109.215 7.44018 110.293 8.56392C111.379 9.67945 111.923 11.2625 111.923 13.3131V26.0229H106.792V14.3467C106.792 13.2967 106.519 12.5093 105.971 11.9843C105.424 11.4594 104.74 11.1969 103.919 11.1969C102.986 11.1969 102.257 11.5004 101.734 12.1074C101.211 12.7062 100.949 13.4977 100.949 14.482V26.0229H95.9639V14.2359C95.9639 13.309 95.7023 12.5708 95.1792 12.0213C94.6641 11.4717 93.9841 11.1969 93.1391 11.1969C92.5677 11.1969 92.0526 11.3446 91.5939 11.6398C91.1432 11.9269 90.7851 12.333 90.5195 12.8579C90.2539 13.3747 90.1212 13.9816 90.1212 14.6789V26.0229H84.9786Z" fill="white"/>
<path d="M121.272 26.3797C120.089 26.3797 119.035 26.1705 118.109 25.7522C117.184 25.3257 116.452 24.6982 115.912 23.8697C115.381 23.0331 115.116 21.9914 115.116 20.7446C115.116 19.6947 115.305 18.8129 115.683 18.0993C116.061 17.3857 116.576 16.8115 117.228 16.3768C117.88 15.942 118.62 15.6139 119.449 15.3925C120.286 15.171 121.163 15.0152 122.081 14.9249C123.159 14.8101 124.029 14.7035 124.688 14.605C125.348 14.4984 125.827 14.3426 126.125 14.1375C126.423 13.9324 126.572 13.6289 126.572 13.227V13.1532C126.572 12.374 126.33 11.7711 125.847 11.3446C125.372 10.918 124.696 10.7048 123.819 10.7048C122.894 10.7048 122.157 10.9139 121.61 11.3323C121.063 11.7424 120.701 12.2591 120.524 12.8825L115.767 12.4888C116.009 11.3405 116.484 10.348 117.192 9.5113C117.9 8.66645 118.814 8.01845 119.932 7.56732C121.059 7.10798 122.363 6.87831 123.843 6.87831C124.874 6.87831 125.859 7.00135 126.801 7.24742C127.751 7.4935 128.592 7.87491 129.324 8.39167C130.064 8.90842 130.648 9.57282 131.074 10.3849C131.501 11.1887 131.714 12.1525 131.714 13.2762V26.0229H126.837V23.4022H126.692C126.395 23.9928 125.996 24.5136 125.497 24.9647C124.998 25.4077 124.399 25.7563 123.699 26.0106C122.998 26.2566 122.19 26.3797 121.272 26.3797ZM122.745 22.7624C123.501 22.7624 124.169 22.6106 124.749 22.3071C125.328 21.9955 125.783 21.5771 126.113 21.0522C126.443 20.5272 126.608 19.9325 126.608 19.2681V17.2626C126.447 17.3693 126.226 17.4677 125.944 17.5579C125.67 17.6399 125.36 17.7179 125.014 17.7917C124.668 17.8573 124.322 17.9188 123.976 17.9762C123.63 18.0255 123.316 18.0706 123.035 18.1116C122.431 18.2018 121.904 18.3454 121.453 18.5422C121.003 18.7391 120.652 19.0057 120.403 19.342C120.153 19.6701 120.029 20.0802 120.029 20.5723C120.029 21.2859 120.282 21.8314 120.789 22.2087C121.304 22.5778 121.956 22.7624 122.745 22.7624Z" fill="white"/>
<path d="M133.299 5.21731V0.824896H153.603V5.21731H146.034V26.0229H140.867V5.21731H133.299Z" fill="white"/>
<path d="M156.947 26.0229V0.824896H162.174V11.2215H172.785V0.824896H178V26.0229H172.785V15.6139H162.174V26.0229H156.947Z" fill="white"/>
<path d="M32.5774 2.56382C32.5774 3.56044 31.7848 4.36836 30.8069 4.36836C29.8291 4.36836 29.0364 3.56044 29.0364 2.56382C29.0364 1.5672 29.8291 0.759277 30.8069 0.759277C31.7848 0.759277 32.5774 1.5672 32.5774 2.56382Z" fill="white"/>
<path d="M40.3677 2.56382C40.3677 3.56044 39.575 4.36836 38.5972 4.36836C37.6194 4.36836 36.8267 3.56044 36.8267 2.56382C36.8267 1.5672 37.6194 0.759277 38.5972 0.759277C39.575 0.759277 40.3677 1.5672 40.3677 2.56382Z" fill="white"/>
<path d="M58.7811 0.759277H70.8205V2.92473H58.7811V0.759277Z" fill="white"/>
<path d="M80.0272 26.0229V33.241H77.9026V26.0229H80.0272Z" fill="white"/>
<path d="M2.12462 0.759277L2.12462 7.97744H0L3.09566e-07 0.759277L2.12462 0.759277Z" fill="white"/>
</svg>
