<svg width="43" height="43" viewBox="0 0 43 43" fill="none" xmlns="http://www.w3.org/2000/svg">
<path d="M23.1289 5.19102L33.6178 9.84879C36.64 11.1821 36.64 13.3866 33.6178 14.7199L23.1289 19.3777C21.9378 19.911 19.9822 19.911 18.7911 19.3777L8.30222 14.7199C5.28 13.3866 5.28 11.1821 8.30222 9.84879L18.7911 5.19102C19.9822 4.65768 21.9378 4.65768 23.1289 5.19102Z" stroke="#F04037" stroke-width="2.66667" stroke-linecap="round" stroke-linejoin="round"/>
<path d="M5.33333 19.5555C5.33333 21.0489 6.45333 22.7733 7.82222 23.3778L19.8933 28.7467C20.8178 29.1555 21.8667 29.1555 22.7733 28.7467L34.8444 23.3778C36.2133 22.7733 37.3333 21.0489 37.3333 19.5555" stroke="#F04037" stroke-width="2.66667" stroke-linecap="round" stroke-linejoin="round"/>
<path d="M5.33333 28.4445C5.33333 30.0978 6.31111 31.5911 7.82222 32.2667L19.8933 37.6356C20.8178 38.0445 21.8667 38.0445 22.7733 37.6356L34.8444 32.2667C36.3556 31.5911 37.3333 30.0978 37.3333 28.4445" stroke="#F04037" stroke-width="2.66667" stroke-linecap="round" stroke-linejoin="round"/>
</svg>
