<svg width="43" height="43" viewBox="0 0 43 43" fill="none" xmlns="http://www.w3.org/2000/svg">
<path d="M39.1111 26.6667V16C39.1111 7.1111 35.5555 3.55554 26.6667 3.55554H16C7.1111 3.55554 3.55554 7.1111 3.55554 16V26.6667C3.55554 35.5555 7.1111 39.1111 16 39.1111H26.6667C35.5555 39.1111 39.1111 35.5555 39.1111 26.6667Z" stroke="#F04037" stroke-width="2.66667" stroke-linecap="round" stroke-linejoin="round"/>
<path d="M4.48004 12.64H38.1867" stroke="#F04037" stroke-width="2.66667" stroke-linecap="round" stroke-linejoin="round"/>
<path d="M15.1467 3.7511V12.3911" stroke="#F04037" stroke-width="2.66667" stroke-linecap="round" stroke-linejoin="round"/>
<path d="M27.52 3.7511V11.5911" stroke="#F04037" stroke-width="2.66667" stroke-linecap="round" stroke-linejoin="round"/>
<path d="M17.3333 25.6889V23.5555C17.3333 20.8178 19.2711 19.6978 21.6355 21.0667L23.4844 22.1333L25.3333 23.2C27.6978 24.5689 27.6978 26.8089 25.3333 28.1778L23.4844 29.2444L21.6355 30.3111C19.2711 31.68 17.3333 30.56 17.3333 27.8222V25.6889V25.6889Z" stroke="#F04037" stroke-width="2.66667" stroke-miterlimit="10" stroke-linecap="round" stroke-linejoin="round"/>
</svg>
