<svg width="43" height="43" viewBox="0 0 43 43" fill="none" xmlns="http://www.w3.org/2000/svg">
<path d="M30.9333 34.2222H11.7333C9.06667 34.2222 8 33.0845 8 30.2578V28.4089C8 25.5822 9.06667 24.4445 11.7333 24.4445H30.9333C33.6 24.4445 34.6667 25.5822 34.6667 28.4089V30.2578C34.6667 33.0845 33.6 34.2222 30.9333 34.2222Z" stroke="#FEDC5A" stroke-width="2.66667" stroke-linecap="round" stroke-linejoin="round"/>
<path d="M27.3778 19.1112H15.2889C12.6222 19.1112 11.5555 17.9734 11.5555 15.1467V13.2978C11.5555 10.4712 12.6222 9.33337 15.2889 9.33337H27.3778C30.0444 9.33337 31.1111 10.4712 31.1111 13.2978V15.1467C31.1111 17.9734 30.0444 19.1112 27.3778 19.1112Z" stroke="#FEDC5A" stroke-width="2.66667" stroke-linecap="round" stroke-linejoin="round"/>
<path d="M21.3333 39.111V34.8444" stroke="#FEDC5A" stroke-width="2.66667" stroke-linecap="round" stroke-linejoin="round"/>
<path d="M21.3333 23.1111V19.5555" stroke="#FEDC5A" stroke-width="2.66667" stroke-linecap="round" stroke-linejoin="round"/>
<path d="M21.3333 3.55554V8.33776" stroke="#292D32" stroke-width="2.66667" stroke-linecap="round" stroke-linejoin="round"/>
</svg>
