<svg width="43" height="43" viewBox="0 0 43 43" fill="none" xmlns="http://www.w3.org/2000/svg">
<path d="M16 23.1111C14.8267 23.6978 13.8489 24.5689 13.12 25.6533C12.7111 26.2755 12.7111 27.0578 13.12 27.68C13.8489 28.7644 14.8267 29.6355 16 30.2222" stroke="#5454D4" stroke-width="2.66667" stroke-linecap="round" stroke-linejoin="round"/>
<path d="M27.04 23.1111C28.2134 23.6978 29.1912 24.5689 29.92 25.6533C30.3289 26.2755 30.3289 27.0578 29.92 27.68C29.1912 28.7644 28.2134 29.6355 27.04 30.2222" stroke="#5454D4" stroke-width="2.66667" stroke-linecap="round" stroke-linejoin="round"/>
<path d="M16 39.1111H26.6667C35.5555 39.1111 39.1111 35.5555 39.1111 26.6667V16C39.1111 7.1111 35.5555 3.55554 26.6667 3.55554H16C7.1111 3.55554 3.55554 7.1111 3.55554 16V26.6667C3.55554 35.5555 7.1111 39.1111 16 39.1111Z" stroke="#5454D4" stroke-width="2.66667" stroke-linecap="round" stroke-linejoin="round"/>
<path d="M3.96442 14.2399L38.1333 14.2222" stroke="#5454D4" stroke-width="2.66667" stroke-linecap="round" stroke-linejoin="round"/>
</svg>
